<svg xmlns="http://www.w3.org/2000/svg" xmlns:xlink="http://www.w3.org/1999/xlink" width="200" height="48" preserveAspectRatio="xMidYMid meet" version="1.0" viewBox="0 0 150 36" zoomAndPan="magnify"><defs><clipPath id="id1"><path d="M 16.007812 1.222656 L 45.199219 1.222656 L 45.199219 34 L 16.007812 34 Z M 16.007812 1.222656" clip-rule="nonzero"/></clipPath><clipPath id="id2"><path d="M 40 9 L 41 9 L 41 11 L 40 11 Z M 40 9" clip-rule="nonzero"/></clipPath><clipPath id="id3"><path d="M 39.605469 8.691406 L 43.121094 9.671875 L 39.980469 20.917969 L 36.46875 19.9375 Z M 39.605469 8.691406" clip-rule="nonzero"/></clipPath><clipPath id="id4"><path d="M 26.726562 0.566406 L 46.40625 6.0625 L 40.914062 25.742188 L 21.234375 20.246094 Z M 26.726562 0.566406" clip-rule="nonzero"/></clipPath><clipPath id="id5"><path d="M 39 9 L 42 9 L 42 12 L 39 12 Z M 39 9" clip-rule="nonzero"/></clipPath><clipPath id="id6"><path d="M 39.605469 8.691406 L 43.121094 9.671875 L 39.980469 20.917969 L 36.46875 19.9375 Z M 39.605469 8.691406" clip-rule="nonzero"/></clipPath><clipPath id="id7"><path d="M 26.726562 0.566406 L 46.40625 6.0625 L 40.914062 25.742188 L 21.234375 20.246094 Z M 26.726562 0.566406" clip-rule="nonzero"/></clipPath><clipPath id="id8"><path d="M 39 11 L 42 11 L 42 13 L 39 13 Z M 39 11" clip-rule="nonzero"/></clipPath><clipPath id="id9"><path d="M 39.605469 8.691406 L 43.121094 9.671875 L 39.980469 20.917969 L 36.46875 19.9375 Z M 39.605469 8.691406" clip-rule="nonzero"/></clipPath><clipPath id="id10"><path d="M 26.726562 0.566406 L 46.40625 6.0625 L 40.914062 25.742188 L 21.234375 20.246094 Z M 26.726562 0.566406" clip-rule="nonzero"/></clipPath><clipPath id="id11"><path d="M 39 12 L 42 12 L 42 14 L 39 14 Z M 39 12" clip-rule="nonzero"/></clipPath><clipPath id="id12"><path d="M 39.605469 8.691406 L 43.121094 9.671875 L 39.980469 20.917969 L 36.46875 19.9375 Z M 39.605469 8.691406" clip-rule="nonzero"/></clipPath><clipPath id="id13"><path d="M 26.726562 0.566406 L 46.40625 6.0625 L 40.914062 25.742188 L 21.234375 20.246094 Z M 26.726562 0.566406" clip-rule="nonzero"/></clipPath><clipPath id="id14"><path d="M 39 13 L 42 13 L 42 16 L 39 16 Z M 39 13" clip-rule="nonzero"/></clipPath><clipPath id="id15"><path d="M 39.605469 8.691406 L 43.121094 9.671875 L 39.980469 20.917969 L 36.46875 19.9375 Z M 39.605469 8.691406" clip-rule="nonzero"/></clipPath><clipPath id="id16"><path d="M 26.726562 0.566406 L 46.40625 6.0625 L 40.914062 25.742188 L 21.234375 20.246094 Z M 26.726562 0.566406" clip-rule="nonzero"/></clipPath><clipPath id="id17"><path d="M 39 14 L 42 14 L 42 17 L 39 17 Z M 39 14" clip-rule="nonzero"/></clipPath><clipPath id="id18"><path d="M 39.605469 8.691406 L 43.121094 9.671875 L 39.980469 20.917969 L 36.46875 19.9375 Z M 39.605469 8.691406" clip-rule="nonzero"/></clipPath><clipPath id="id19"><path d="M 26.726562 0.566406 L 46.40625 6.0625 L 40.914062 25.742188 L 21.234375 20.246094 Z M 26.726562 0.566406" clip-rule="nonzero"/></clipPath><clipPath id="id20"><path d="M 38 15 L 41 15 L 41 18 L 38 18 Z M 38 15" clip-rule="nonzero"/></clipPath><clipPath id="id21"><path d="M 39.605469 8.691406 L 43.121094 9.671875 L 39.980469 20.917969 L 36.46875 19.9375 Z M 39.605469 8.691406" clip-rule="nonzero"/></clipPath><clipPath id="id22"><path d="M 26.726562 0.566406 L 46.40625 6.0625 L 40.914062 25.742188 L 21.234375 20.246094 Z M 26.726562 0.566406" clip-rule="nonzero"/></clipPath><clipPath id="id23"><path d="M 37 16 L 41 16 L 41 19 L 37 19 Z M 37 16" clip-rule="nonzero"/></clipPath><clipPath id="id24"><path d="M 39.605469 8.691406 L 43.121094 9.671875 L 39.980469 20.917969 L 36.46875 19.9375 Z M 39.605469 8.691406" clip-rule="nonzero"/></clipPath><clipPath id="id25"><path d="M 26.726562 0.566406 L 46.40625 6.0625 L 40.914062 25.742188 L 21.234375 20.246094 Z M 26.726562 0.566406" clip-rule="nonzero"/></clipPath><clipPath id="id26"><path d="M 36 17 L 40 17 L 40 21 L 36 21 Z M 36 17" clip-rule="nonzero"/></clipPath><clipPath id="id27"><path d="M 39.605469 8.691406 L 43.121094 9.671875 L 39.980469 20.917969 L 36.46875 19.9375 Z M 39.605469 8.691406" clip-rule="nonzero"/></clipPath><clipPath id="id28"><path d="M 26.726562 0.566406 L 46.40625 6.0625 L 40.914062 25.742188 L 21.234375 20.246094 Z M 26.726562 0.566406" clip-rule="nonzero"/></clipPath><clipPath id="id29"><path d="M 20 9 L 22 9 L 22 11 L 20 11 Z M 20 9" clip-rule="nonzero"/></clipPath><clipPath id="id30"><path d="M 18.234375 9.742188 L 21.738281 8.734375 L 24.964844 19.957031 L 21.457031 20.964844 Z M 18.234375 9.742188" clip-rule="nonzero"/></clipPath><clipPath id="id31"><path d="M 34.710938 0.46875 L 15.074219 6.109375 L 20.71875 25.75 L 40.355469 20.105469 Z M 34.710938 0.46875" clip-rule="nonzero"/></clipPath><clipPath id="id32"><path d="M 20 9 L 22 9 L 22 12 L 20 12 Z M 20 9" clip-rule="nonzero"/></clipPath><clipPath id="id33"><path d="M 18.234375 9.742188 L 21.738281 8.734375 L 24.964844 19.957031 L 21.457031 20.964844 Z M 18.234375 9.742188" clip-rule="nonzero"/></clipPath><clipPath id="id34"><path d="M 34.710938 0.46875 L 15.074219 6.109375 L 20.71875 25.75 L 40.355469 20.105469 Z M 34.710938 0.46875" clip-rule="nonzero"/></clipPath><clipPath id="id35"><path d="M 20 11 L 22 11 L 22 13 L 20 13 Z M 20 11" clip-rule="nonzero"/></clipPath><clipPath id="id36"><path d="M 18.234375 9.742188 L 21.738281 8.734375 L 24.964844 19.957031 L 21.457031 20.964844 Z M 18.234375 9.742188" clip-rule="nonzero"/></clipPath><clipPath id="id37"><path d="M 34.710938 0.46875 L 15.074219 6.109375 L 20.71875 25.75 L 40.355469 20.105469 Z M 34.710938 0.46875" clip-rule="nonzero"/></clipPath><clipPath id="id38"><path d="M 19 12 L 22 12 L 22 14 L 19 14 Z M 19 12" clip-rule="nonzero"/></clipPath><clipPath id="id39"><path d="M 18.234375 9.742188 L 21.738281 8.734375 L 24.964844 19.957031 L 21.457031 20.964844 Z M 18.234375 9.742188" clip-rule="nonzero"/></clipPath><clipPath id="id40"><path d="M 34.710938 0.46875 L 15.074219 6.109375 L 20.71875 25.75 L 40.355469 20.105469 Z M 34.710938 0.46875" clip-rule="nonzero"/></clipPath><clipPath id="id41"><path d="M 20 13 L 22 13 L 22 16 L 20 16 Z M 20 13" clip-rule="nonzero"/></clipPath><clipPath id="id42"><path d="M 18.234375 9.742188 L 21.738281 8.734375 L 24.964844 19.957031 L 21.457031 20.964844 Z M 18.234375 9.742188" clip-rule="nonzero"/></clipPath><clipPath id="id43"><path d="M 34.710938 0.46875 L 15.074219 6.109375 L 20.71875 25.75 L 40.355469 20.105469 Z M 34.710938 0.46875" clip-rule="nonzero"/></clipPath><clipPath id="id44"><path d="M 20 14 L 23 14 L 23 17 L 20 17 Z M 20 14" clip-rule="nonzero"/></clipPath><clipPath id="id45"><path d="M 18.234375 9.742188 L 21.738281 8.734375 L 24.964844 19.957031 L 21.457031 20.964844 Z M 18.234375 9.742188" clip-rule="nonzero"/></clipPath><clipPath id="id46"><path d="M 34.710938 0.46875 L 15.074219 6.109375 L 20.71875 25.75 L 40.355469 20.105469 Z M 34.710938 0.46875" clip-rule="nonzero"/></clipPath><clipPath id="id47"><path d="M 20 15 L 23 15 L 23 18 L 20 18 Z M 20 15" clip-rule="nonzero"/></clipPath><clipPath id="id48"><path d="M 18.234375 9.742188 L 21.738281 8.734375 L 24.964844 19.957031 L 21.457031 20.964844 Z M 18.234375 9.742188" clip-rule="nonzero"/></clipPath><clipPath id="id49"><path d="M 34.710938 0.46875 L 15.074219 6.109375 L 20.71875 25.75 L 40.355469 20.105469 Z M 34.710938 0.46875" clip-rule="nonzero"/></clipPath><clipPath id="id50"><path d="M 21 16 L 24 16 L 24 19 L 21 19 Z M 21 16" clip-rule="nonzero"/></clipPath><clipPath id="id51"><path d="M 18.234375 9.742188 L 21.738281 8.734375 L 24.964844 19.957031 L 21.457031 20.964844 Z M 18.234375 9.742188" clip-rule="nonzero"/></clipPath><clipPath id="id52"><path d="M 34.710938 0.46875 L 15.074219 6.109375 L 20.71875 25.75 L 40.355469 20.105469 Z M 34.710938 0.46875" clip-rule="nonzero"/></clipPath><clipPath id="id53"><path d="M 22 17 L 25 17 L 25 21 L 22 21 Z M 22 17" clip-rule="nonzero"/></clipPath><clipPath id="id54"><path d="M 18.234375 9.742188 L 21.738281 8.734375 L 24.964844 19.957031 L 21.457031 20.964844 Z M 18.234375 9.742188" clip-rule="nonzero"/></clipPath><clipPath id="id55"><path d="M 34.710938 0.46875 L 15.074219 6.109375 L 20.71875 25.75 L 40.355469 20.105469 Z M 34.710938 0.46875" clip-rule="nonzero"/></clipPath><clipPath id="id56"><path d="M 24 21.230469 L 26 21.230469 L 26 23.417969 L 24 23.417969 Z M 24 21.230469" clip-rule="nonzero"/></clipPath><clipPath id="id57"><path d="M 35.484375 21.230469 L 37.675781 21.230469 L 37.675781 23.417969 L 35.484375 23.417969 Z M 35.484375 21.230469" clip-rule="nonzero"/></clipPath></defs><g fill="#e4652b" fill-opacity="1"><g><g><path d="M 7.265625 -9.3125 C 7.140625 -9.53125 6.6875 -9.640625 5.90625 -9.640625 C 4.863281 -9.640625 4.078125 -9.285156 3.546875 -8.578125 C 3.015625 -7.878906 2.75 -6.867188 2.75 -5.546875 C 2.75 -2.804688 3.773438 -1.4375 5.828125 -1.4375 C 5.867188 -1.4375 6.019531 -1.4375 6.28125 -1.4375 C 6.539062 -1.4375 6.785156 -1.472656 7.015625 -1.546875 C 7.253906 -1.617188 7.394531 -1.691406 7.4375 -1.765625 C 7.476562 -1.847656 7.5 -1.972656 7.5 -2.140625 L 7.5 -3.46875 L 9.203125 -3.34375 L 9.203125 -0.46875 C 8.335938 -0.0078125 7.238281 0.21875 5.90625 0.21875 C 4.195312 0.21875 2.894531 -0.257812 2 -1.21875 C 1.113281 -2.175781 0.671875 -3.597656 0.671875 -5.484375 C 0.671875 -6.523438 0.816406 -7.4375 1.109375 -8.21875 C 1.410156 -9 1.816406 -9.601562 2.328125 -10.03125 C 3.328125 -10.863281 4.519531 -11.28125 5.90625 -11.28125 C 7.007812 -11.28125 8.050781 -11.054688 9.03125 -10.609375 L 9.03125 -7.765625 L 7.328125 -7.65625 L 7.328125 -8.953125 C 7.328125 -9.117188 7.304688 -9.238281 7.265625 -9.3125 Z M 7.265625 -9.3125" transform="translate(51.24463, 18.679913)"/></g></g></g><g fill="#e4652b" fill-opacity="1"><g><g><path d="M 1.140625 -1.875 L 3.8125 -9.640625 L 2.765625 -9.734375 L 2.765625 -11.09375 L 6.578125 -11.09375 L 9.984375 -1.46875 L 10 -1.46875 L 10.953125 -1.421875 L 10.953125 0 L 6.65625 0 L 6.65625 -1.34375 L 7.28125 -1.40625 C 7.46875 -1.425781 7.59375 -1.46875 7.65625 -1.53125 C 7.726562 -1.601562 7.738281 -1.726562 7.6875 -1.90625 L 7.328125 -2.9375 L 3.4375 -2.9375 L 2.9375 -1.46875 L 3.9375 -1.421875 L 3.9375 0 L 0.078125 0 L 0.078125 -1.34375 L 0.640625 -1.40625 C 0.867188 -1.425781 1.035156 -1.582031 1.140625 -1.875 Z M 5.390625 -9.21875 L 3.828125 -4.46875 L 6.9375 -4.46875 L 5.4375 -9.21875 Z M 5.390625 -9.21875" transform="translate(64.360994, 18.679913)"/></g></g></g><g fill="#e4652b" fill-opacity="1"><g><g><path d="M 0.53125 0 L 0.53125 -1.34375 L 1.078125 -1.40625 C 1.398438 -1.4375 1.5625 -1.59375 1.5625 -1.875 L 1.5625 -9.625 L 0.609375 -9.671875 L 0.609375 -11.09375 L 5.171875 -11.09375 C 6.460938 -11.09375 7.453125 -10.851562 8.140625 -10.375 C 8.828125 -9.894531 9.171875 -9.109375 9.171875 -8.015625 C 9.171875 -7.265625 8.972656 -6.644531 8.578125 -6.15625 C 8.179688 -5.664062 7.710938 -5.304688 7.171875 -5.078125 C 7.566406 -4.941406 7.882812 -4.601562 8.125 -4.0625 L 9.3125 -1.453125 L 10.265625 -1.421875 L 10.265625 0 L 6.15625 0 L 6.15625 -1.34375 L 6.640625 -1.40625 C 6.890625 -1.4375 7.015625 -1.535156 7.015625 -1.703125 C 7.015625 -1.765625 6.992188 -1.84375 6.953125 -1.9375 L 6.171875 -3.59375 C 6.046875 -3.875 5.90625 -4.070312 5.75 -4.1875 C 5.601562 -4.3125 5.394531 -4.375 5.125 -4.375 L 3.59375 -4.375 L 3.59375 -1.46875 L 4.6875 -1.421875 L 4.6875 0 Z M 3.59375 -5.953125 L 5.046875 -5.953125 C 6.421875 -5.953125 7.109375 -6.5625 7.109375 -7.78125 C 7.109375 -8.488281 6.925781 -8.945312 6.5625 -9.15625 C 6.195312 -9.363281 5.613281 -9.46875 4.8125 -9.46875 L 3.59375 -9.46875 Z M 3.59375 -5.953125" transform="translate(78.477295, 18.679913)"/></g></g></g><g fill="#e4652b" fill-opacity="1"><g><g><path d="M 0.53125 0 L 0.53125 -1.34375 L 1.140625 -1.40625 C 1.421875 -1.425781 1.5625 -1.582031 1.5625 -1.875 L 1.5625 -9.625 L 0.609375 -9.671875 L 0.609375 -11.09375 L 3.625 -11.09375 L 8.34375 -3.4375 L 8.375 -3.4375 L 8.375 -9.625 L 7.265625 -9.671875 L 7.265625 -11.09375 L 11.34375 -11.09375 L 11.34375 -9.734375 L 10.734375 -9.6875 C 10.472656 -9.664062 10.34375 -9.492188 10.34375 -9.171875 L 10.34375 0 L 8.390625 0 L 3.5625 -7.765625 L 3.53125 -7.765625 L 3.53125 -1.46875 L 4.625 -1.421875 L 4.625 0 Z M 0.53125 0" transform="translate(91.993635, 18.679913)"/></g></g></g><g fill="#e4652b" fill-opacity="1"><g><g><path d="M 8.484375 0 L 0.5625 0 L 0.5625 -1.34375 L 1.109375 -1.40625 C 1.429688 -1.4375 1.59375 -1.59375 1.59375 -1.875 L 1.59375 -9.625 L 0.65625 -9.671875 L 0.65625 -11.09375 L 8.28125 -11.09375 L 8.28125 -8.3125 L 6.578125 -8.203125 L 6.578125 -8.875 C 6.578125 -9.0625 6.550781 -9.191406 6.5 -9.265625 C 6.445312 -9.347656 6.316406 -9.390625 6.109375 -9.390625 L 3.640625 -9.390625 L 3.640625 -6.53125 L 7.484375 -6.53125 L 7.484375 -4.828125 L 3.640625 -4.828125 L 3.640625 -1.71875 L 6.3125 -1.71875 C 6.519531 -1.71875 6.648438 -1.757812 6.703125 -1.84375 C 6.753906 -1.925781 6.78125 -2.0625 6.78125 -2.25 L 6.78125 -3.078125 L 8.484375 -2.96875 Z M 8.484375 0" transform="translate(106.826563, 18.679913)"/></g></g></g><g fill="#e4652b" fill-opacity="1"><g><g><path d="M 3.703125 -1.875 L 3.703125 -4.234375 L 0.859375 -9.625 L 0.078125 -9.671875 L 0.078125 -11.09375 L 4.15625 -11.09375 L 4.15625 -9.734375 L 3.65625 -9.6875 C 3.476562 -9.675781 3.363281 -9.609375 3.3125 -9.484375 C 3.257812 -9.359375 3.28125 -9.207031 3.375 -9.03125 L 4.78125 -6.140625 L 4.84375 -6.140625 L 6.671875 -9.609375 L 5.828125 -9.671875 L 5.828125 -11.09375 L 9.421875 -11.09375 L 9.421875 -9.734375 L 8.921875 -9.6875 C 8.710938 -9.664062 8.523438 -9.5 8.359375 -9.1875 L 5.734375 -4.234375 L 5.734375 -1.46875 L 7.03125 -1.421875 L 7.03125 0 L 2.328125 0 L 2.328125 -1.34375 L 3.21875 -1.40625 C 3.539062 -1.425781 3.703125 -1.582031 3.703125 -1.875 Z M 3.703125 -1.875" transform="translate(119.05965, 18.679913)"/></g></g></g><g fill="#e4652b" fill-opacity="1"><g><g><path d="M 1.46875 -0.546875 C 1.957031 -0.546875 2.203125 -0.742188 2.203125 -1.140625 C 2.203125 -1.335938 2.09375 -1.488281 1.875 -1.59375 C 1.757812 -1.644531 1.613281 -1.695312 1.4375 -1.75 C 1.257812 -1.800781 1.109375 -1.847656 0.984375 -1.890625 C 0.867188 -1.941406 0.75 -2.015625 0.625 -2.109375 C 0.382812 -2.285156 0.265625 -2.5625 0.265625 -2.9375 C 0.265625 -3.3125 0.390625 -3.601562 0.640625 -3.8125 C 0.898438 -4.03125 1.238281 -4.140625 1.65625 -4.140625 C 2.082031 -4.140625 2.472656 -4.054688 2.828125 -3.890625 L 2.828125 -2.96875 L 2.203125 -2.921875 L 2.203125 -3.28125 C 2.203125 -3.34375 2.195312 -3.390625 2.1875 -3.421875 C 2.132812 -3.492188 1.988281 -3.53125 1.75 -3.53125 C 1.507812 -3.53125 1.328125 -3.488281 1.203125 -3.40625 C 1.085938 -3.320312 1.03125 -3.1875 1.03125 -3 C 1.03125 -2.875 1.082031 -2.757812 1.1875 -2.65625 C 1.25 -2.59375 1.34375 -2.539062 1.46875 -2.5 C 1.601562 -2.457031 1.742188 -2.410156 1.890625 -2.359375 C 2.035156 -2.316406 2.160156 -2.269531 2.265625 -2.21875 C 2.378906 -2.164062 2.5 -2.09375 2.625 -2 C 2.875 -1.820312 3 -1.539062 3 -1.15625 C 3 -0.769531 2.859375 -0.46875 2.578125 -0.25 C 2.304688 -0.03125 1.941406 0.078125 1.484375 0.078125 C 1.035156 0.078125 0.632812 -0.00390625 0.28125 -0.171875 L 0.28125 -1.140625 L 0.90625 -1.171875 L 0.90625 -0.8125 C 0.90625 -0.75 0.910156 -0.703125 0.921875 -0.671875 C 0.941406 -0.640625 0.992188 -0.609375 1.078125 -0.578125 C 1.160156 -0.554688 1.289062 -0.546875 1.46875 -0.546875 Z M 1.46875 -0.546875" transform="translate(51.24463, 28.389204)"/></g></g></g><g fill="#e4652b" fill-opacity="1"><g><g><path d="M 2.65625 -3.421875 C 2.613281 -3.492188 2.445312 -3.53125 2.15625 -3.53125 C 1.78125 -3.53125 1.492188 -3.398438 1.296875 -3.140625 C 1.109375 -2.890625 1.015625 -2.519531 1.015625 -2.03125 C 1.015625 -1.03125 1.390625 -0.53125 2.140625 -0.53125 C 2.148438 -0.53125 2.203125 -0.53125 2.296875 -0.53125 C 2.390625 -0.53125 2.476562 -0.539062 2.5625 -0.5625 C 2.65625 -0.59375 2.707031 -0.617188 2.71875 -0.640625 C 2.738281 -0.671875 2.75 -0.71875 2.75 -0.78125 L 2.75 -1.265625 L 3.375 -1.234375 L 3.375 -0.171875 C 3.050781 -0.00390625 2.644531 0.078125 2.15625 0.078125 C 1.539062 0.078125 1.066406 -0.09375 0.734375 -0.4375 C 0.410156 -0.789062 0.25 -1.316406 0.25 -2.015625 C 0.25 -2.390625 0.300781 -2.71875 0.40625 -3 C 0.519531 -3.289062 0.671875 -3.515625 0.859375 -3.671875 C 1.222656 -3.984375 1.65625 -4.140625 2.15625 -4.140625 C 2.570312 -4.140625 2.957031 -4.054688 3.3125 -3.890625 L 3.3125 -2.84375 L 2.6875 -2.796875 L 2.6875 -3.28125 C 2.6875 -3.34375 2.675781 -3.390625 2.65625 -3.421875 Z M 2.65625 -3.421875" transform="translate(55.953899, 28.389204)"/></g></g></g><g fill="#e4652b" fill-opacity="1"><g><g><path d="M 3.046875 -0.71875 L 3.046875 -1.765625 L 1.3125 -1.765625 L 1.3125 -0.53125 L 1.671875 -0.515625 L 1.671875 0 L 0.203125 0 L 0.203125 -0.5 L 0.390625 -0.515625 C 0.515625 -0.523438 0.578125 -0.582031 0.578125 -0.6875 L 0.578125 -3.53125 L 0.21875 -3.546875 L 0.21875 -4.0625 L 1.703125 -4.0625 L 1.703125 -3.5625 L 1.5 -3.546875 C 1.4375 -3.535156 1.390625 -3.515625 1.359375 -3.484375 C 1.328125 -3.460938 1.3125 -3.414062 1.3125 -3.34375 L 1.3125 -2.40625 L 3.046875 -2.40625 L 3.046875 -3.53125 L 2.703125 -3.546875 L 2.703125 -4.0625 L 4.171875 -4.0625 L 4.171875 -3.5625 L 3.984375 -3.546875 C 3.859375 -3.535156 3.796875 -3.472656 3.796875 -3.359375 L 3.796875 -0.53125 L 4.140625 -0.515625 L 4.140625 0 L 2.671875 0 L 2.671875 -0.5 L 2.875 -0.515625 C 2.9375 -0.523438 2.976562 -0.539062 3 -0.5625 C 3.03125 -0.59375 3.046875 -0.644531 3.046875 -0.71875 Z M 3.046875 -0.71875" transform="translate(61.151708, 28.389204)"/></g></g></g><g fill="#e4652b" fill-opacity="1"><g><g><path d="M 2.109375 -4.140625 C 2.585938 -4.140625 2.988281 -3.96875 3.3125 -3.625 C 3.644531 -3.28125 3.8125 -2.753906 3.8125 -2.046875 C 3.8125 -1.347656 3.648438 -0.816406 3.328125 -0.453125 C 3.003906 -0.0976562 2.566406 0.078125 2.015625 0.078125 C 1.460938 0.078125 1.03125 -0.0976562 0.71875 -0.453125 C 0.40625 -0.816406 0.25 -1.335938 0.25 -2.015625 C 0.25 -2.390625 0.300781 -2.71875 0.40625 -3 C 0.519531 -3.289062 0.664062 -3.515625 0.84375 -3.671875 C 1.207031 -3.984375 1.628906 -4.140625 2.109375 -4.140625 Z M 1.015625 -2.046875 C 1.015625 -1.035156 1.363281 -0.53125 2.0625 -0.53125 C 2.4375 -0.53125 2.695312 -0.6875 2.84375 -1 C 2.988281 -1.269531 3.0625 -1.601562 3.0625 -2 C 3.0625 -2.351562 3 -2.679688 2.875 -2.984375 C 2.800781 -3.140625 2.691406 -3.265625 2.546875 -3.359375 C 2.410156 -3.453125 2.226562 -3.5 2 -3.5 C 1.78125 -3.5 1.585938 -3.425781 1.421875 -3.28125 C 1.265625 -3.132812 1.15625 -2.957031 1.09375 -2.75 C 1.039062 -2.539062 1.015625 -2.304688 1.015625 -2.046875 Z M 1.015625 -2.046875" transform="translate(67.021261, 28.389204)"/></g></g></g><g fill="#e4652b" fill-opacity="1"><g><g><path d="M 2.109375 -4.140625 C 2.585938 -4.140625 2.988281 -3.96875 3.3125 -3.625 C 3.644531 -3.28125 3.8125 -2.753906 3.8125 -2.046875 C 3.8125 -1.347656 3.648438 -0.816406 3.328125 -0.453125 C 3.003906 -0.0976562 2.566406 0.078125 2.015625 0.078125 C 1.460938 0.078125 1.03125 -0.0976562 0.71875 -0.453125 C 0.40625 -0.816406 0.25 -1.335938 0.25 -2.015625 C 0.25 -2.390625 0.300781 -2.71875 0.40625 -3 C 0.519531 -3.289062 0.664062 -3.515625 0.84375 -3.671875 C 1.207031 -3.984375 1.628906 -4.140625 2.109375 -4.140625 Z M 1.015625 -2.046875 C 1.015625 -1.035156 1.363281 -0.53125 2.0625 -0.53125 C 2.4375 -0.53125 2.695312 -0.6875 2.84375 -1 C 2.988281 -1.269531 3.0625 -1.601562 3.0625 -2 C 3.0625 -2.351562 3 -2.679688 2.875 -2.984375 C 2.800781 -3.140625 2.691406 -3.265625 2.546875 -3.359375 C 2.410156 -3.453125 2.226562 -3.5 2 -3.5 C 1.78125 -3.5 1.585938 -3.425781 1.421875 -3.28125 C 1.265625 -3.132812 1.15625 -2.957031 1.09375 -2.75 C 1.039062 -2.539062 1.015625 -2.304688 1.015625 -2.046875 Z M 1.015625 -2.046875" transform="translate(72.597691, 28.389204)"/></g></g></g><g fill="#e4652b" fill-opacity="1"><g><g><path d="M 3.09375 0 L 0.203125 0 L 0.203125 -0.5 L 0.390625 -0.515625 C 0.515625 -0.523438 0.578125 -0.582031 0.578125 -0.6875 L 0.578125 -3.53125 L 0.21875 -3.546875 L 0.21875 -4.0625 L 1.703125 -4.0625 L 1.703125 -3.5625 L 1.5 -3.546875 C 1.375 -3.535156 1.3125 -3.472656 1.3125 -3.359375 L 1.3125 -0.625 L 2.328125 -0.625 C 2.390625 -0.625 2.425781 -0.640625 2.4375 -0.671875 C 2.457031 -0.703125 2.46875 -0.753906 2.46875 -0.828125 L 2.46875 -1.25 L 3.09375 -1.203125 Z M 3.09375 0" transform="translate(78.174121, 28.389204)"/></g></g></g><g fill="#e4652b" fill-opacity="1"><g><g><path d="M 0.203125 0 L 0.203125 -0.5 L 0.40625 -0.515625 C 0.53125 -0.523438 0.59375 -0.582031 0.59375 -0.6875 L 0.59375 -3.53125 L 0.234375 -3.546875 L 0.234375 -4.0625 L 1.90625 -4.0625 C 2.507812 -4.0625 2.976562 -3.898438 3.3125 -3.578125 C 3.644531 -3.265625 3.8125 -2.796875 3.8125 -2.171875 C 3.8125 -1.785156 3.757812 -1.445312 3.65625 -1.15625 C 3.5625 -0.875 3.425781 -0.648438 3.25 -0.484375 C 2.894531 -0.160156 2.457031 0 1.9375 0 Z M 1.328125 -3.46875 L 1.328125 -0.59375 L 1.953125 -0.59375 C 2.304688 -0.59375 2.578125 -0.71875 2.765625 -0.96875 C 2.960938 -1.21875 3.0625 -1.582031 3.0625 -2.0625 C 3.0625 -3 2.664062 -3.46875 1.875 -3.46875 Z M 1.328125 -3.46875" transform="translate(85.717879, 28.389204)"/></g></g></g><g fill="#e4652b" fill-opacity="1"><g><g><path d="M 0.578125 -0.71875 L 0.578125 -3.53125 L 0.21875 -3.546875 L 0.21875 -4.0625 L 1.703125 -4.0625 L 1.703125 -3.5625 L 1.5 -3.546875 C 1.382812 -3.535156 1.328125 -3.472656 1.328125 -3.359375 L 1.328125 -0.53125 L 1.671875 -0.515625 L 1.671875 0 L 0.203125 0 L 0.203125 -0.5 L 0.390625 -0.515625 C 0.453125 -0.523438 0.5 -0.539062 0.53125 -0.5625 C 0.5625 -0.59375 0.578125 -0.644531 0.578125 -0.71875 Z M 0.578125 -0.71875" transform="translate(91.300416, 28.389204)"/></g></g></g><g fill="#e4652b" fill-opacity="1"><g><g><path d="M 1.46875 -0.546875 C 1.957031 -0.546875 2.203125 -0.742188 2.203125 -1.140625 C 2.203125 -1.335938 2.09375 -1.488281 1.875 -1.59375 C 1.757812 -1.644531 1.613281 -1.695312 1.4375 -1.75 C 1.257812 -1.800781 1.109375 -1.847656 0.984375 -1.890625 C 0.867188 -1.941406 0.75 -2.015625 0.625 -2.109375 C 0.382812 -2.285156 0.265625 -2.5625 0.265625 -2.9375 C 0.265625 -3.3125 0.390625 -3.601562 0.640625 -3.8125 C 0.898438 -4.03125 1.238281 -4.140625 1.65625 -4.140625 C 2.082031 -4.140625 2.472656 -4.054688 2.828125 -3.890625 L 2.828125 -2.96875 L 2.203125 -2.921875 L 2.203125 -3.28125 C 2.203125 -3.34375 2.195312 -3.390625 2.1875 -3.421875 C 2.132812 -3.492188 1.988281 -3.53125 1.75 -3.53125 C 1.507812 -3.53125 1.328125 -3.488281 1.203125 -3.40625 C 1.085938 -3.320312 1.03125 -3.1875 1.03125 -3 C 1.03125 -2.875 1.082031 -2.757812 1.1875 -2.65625 C 1.25 -2.59375 1.34375 -2.539062 1.46875 -2.5 C 1.601562 -2.457031 1.742188 -2.410156 1.890625 -2.359375 C 2.035156 -2.316406 2.160156 -2.269531 2.265625 -2.21875 C 2.378906 -2.164062 2.5 -2.09375 2.625 -2 C 2.875 -1.820312 3 -1.539062 3 -1.15625 C 3 -0.769531 2.859375 -0.46875 2.578125 -0.25 C 2.304688 -0.03125 1.941406 0.078125 1.484375 0.078125 C 1.035156 0.078125 0.632812 -0.00390625 0.28125 -0.171875 L 0.28125 -1.140625 L 0.90625 -1.171875 L 0.90625 -0.8125 C 0.90625 -0.75 0.910156 -0.703125 0.921875 -0.671875 C 0.941406 -0.640625 0.992188 -0.609375 1.078125 -0.578125 C 1.160156 -0.554688 1.289062 -0.546875 1.46875 -0.546875 Z M 1.46875 -0.546875" transform="translate(94.696729, 28.389204)"/></g></g></g><g fill="#e4652b" fill-opacity="1"><g><g><path d="M 1.328125 -0.6875 L 1.328125 -3.453125 L 0.859375 -3.453125 C 0.765625 -3.453125 0.71875 -3.390625 0.71875 -3.265625 L 0.71875 -2.984375 L 0.09375 -3.03125 L 0.09375 -4.0625 L 3.28125 -4.0625 L 3.28125 -3.03125 L 2.65625 -2.984375 L 2.65625 -3.265625 C 2.65625 -3.335938 2.644531 -3.382812 2.625 -3.40625 C 2.613281 -3.4375 2.566406 -3.453125 2.484375 -3.453125 L 2.078125 -3.453125 L 2.078125 -0.53125 L 2.546875 -0.515625 L 2.546875 0 L 0.828125 0 L 0.828125 -0.5 L 1.15625 -0.515625 C 1.269531 -0.523438 1.328125 -0.582031 1.328125 -0.6875 Z M 1.328125 -0.6875" transform="translate(99.405997, 28.389204)"/></g></g></g><g fill="#e4652b" fill-opacity="1"><g><g><path d="M 0.203125 0 L 0.203125 -0.5 L 0.390625 -0.515625 C 0.515625 -0.523438 0.578125 -0.582031 0.578125 -0.6875 L 0.578125 -3.53125 L 0.21875 -3.546875 L 0.21875 -4.0625 L 1.890625 -4.0625 C 2.367188 -4.0625 2.734375 -3.972656 2.984375 -3.796875 C 3.234375 -3.617188 3.359375 -3.332031 3.359375 -2.9375 C 3.359375 -2.65625 3.285156 -2.425781 3.140625 -2.25 C 2.992188 -2.070312 2.820312 -1.941406 2.625 -1.859375 C 2.769531 -1.804688 2.882812 -1.679688 2.96875 -1.484375 L 3.421875 -0.53125 L 3.765625 -0.515625 L 3.765625 0 L 2.25 0 L 2.25 -0.5 L 2.4375 -0.515625 C 2.53125 -0.523438 2.578125 -0.5625 2.578125 -0.625 C 2.578125 -0.644531 2.566406 -0.671875 2.546875 -0.703125 L 2.265625 -1.3125 C 2.210938 -1.414062 2.160156 -1.488281 2.109375 -1.53125 C 2.054688 -1.570312 1.976562 -1.59375 1.875 -1.59375 L 1.3125 -1.59375 L 1.3125 -0.53125 L 1.71875 -0.515625 L 1.71875 0 Z M 1.3125 -2.1875 L 1.84375 -2.1875 C 2.351562 -2.1875 2.609375 -2.410156 2.609375 -2.859375 C 2.609375 -3.109375 2.539062 -3.269531 2.40625 -3.34375 C 2.269531 -3.425781 2.054688 -3.46875 1.765625 -3.46875 L 1.3125 -3.46875 Z M 1.3125 -2.1875" transform="translate(104.304574, 28.389204)"/></g></g></g><g fill="#e4652b" fill-opacity="1"><g><g><path d="M 0.578125 -0.71875 L 0.578125 -3.53125 L 0.21875 -3.546875 L 0.21875 -4.0625 L 1.703125 -4.0625 L 1.703125 -3.5625 L 1.5 -3.546875 C 1.382812 -3.535156 1.328125 -3.472656 1.328125 -3.359375 L 1.328125 -0.53125 L 1.671875 -0.515625 L 1.671875 0 L 0.203125 0 L 0.203125 -0.5 L 0.390625 -0.515625 C 0.453125 -0.523438 0.5 -0.539062 0.53125 -0.5625 C 0.5625 -0.59375 0.578125 -0.644531 0.578125 -0.71875 Z M 0.578125 -0.71875" transform="translate(109.648945, 28.389204)"/></g></g></g><g fill="#e4652b" fill-opacity="1"><g><g><path d="M 2.65625 -3.421875 C 2.613281 -3.492188 2.445312 -3.53125 2.15625 -3.53125 C 1.78125 -3.53125 1.492188 -3.398438 1.296875 -3.140625 C 1.109375 -2.890625 1.015625 -2.519531 1.015625 -2.03125 C 1.015625 -1.03125 1.390625 -0.53125 2.140625 -0.53125 C 2.148438 -0.53125 2.203125 -0.53125 2.296875 -0.53125 C 2.390625 -0.53125 2.476562 -0.539062 2.5625 -0.5625 C 2.65625 -0.59375 2.707031 -0.617188 2.71875 -0.640625 C 2.738281 -0.671875 2.75 -0.71875 2.75 -0.78125 L 2.75 -1.265625 L 3.375 -1.234375 L 3.375 -0.171875 C 3.050781 -0.00390625 2.644531 0.078125 2.15625 0.078125 C 1.539062 0.078125 1.066406 -0.09375 0.734375 -0.4375 C 0.410156 -0.789062 0.25 -1.316406 0.25 -2.015625 C 0.25 -2.390625 0.300781 -2.71875 0.40625 -3 C 0.519531 -3.289062 0.671875 -3.515625 0.859375 -3.671875 C 1.222656 -3.984375 1.65625 -4.140625 2.15625 -4.140625 C 2.570312 -4.140625 2.957031 -4.054688 3.3125 -3.890625 L 3.3125 -2.84375 L 2.6875 -2.796875 L 2.6875 -3.28125 C 2.6875 -3.34375 2.675781 -3.390625 2.65625 -3.421875 Z M 2.65625 -3.421875" transform="translate(113.045258, 28.389204)"/></g></g></g><g fill="#e4652b" fill-opacity="1"><g><g><path d="M 1.328125 -0.6875 L 1.328125 -3.453125 L 0.859375 -3.453125 C 0.765625 -3.453125 0.71875 -3.390625 0.71875 -3.265625 L 0.71875 -2.984375 L 0.09375 -3.03125 L 0.09375 -4.0625 L 3.28125 -4.0625 L 3.28125 -3.03125 L 2.65625 -2.984375 L 2.65625 -3.265625 C 2.65625 -3.335938 2.644531 -3.382812 2.625 -3.40625 C 2.613281 -3.4375 2.566406 -3.453125 2.484375 -3.453125 L 2.078125 -3.453125 L 2.078125 -0.53125 L 2.546875 -0.515625 L 2.546875 0 L 0.828125 0 L 0.828125 -0.5 L 1.15625 -0.515625 C 1.269531 -0.523438 1.328125 -0.582031 1.328125 -0.6875 Z M 1.328125 -0.6875" transform="translate(118.243066, 28.389204)"/></g></g></g><g clip-path="url(#id1)"><path fill="#e4652b" fill-opacity="1" fill-rule="nonzero" d="M 39.578125 2.214844 L 39.578125 1.59375 L 22.359375 1.59375 C 22.164062 1.59375 21.980469 1.6875 21.863281 1.84375 L 16.476562 9.085938 C 16.386719 9.207031 16.339844 9.363281 16.355469 9.511719 C 16.738281 13.828125 17.820312 17.503906 19.230469 20.585938 C 21.34375 25.214844 24.195312 28.5 26.519531 30.632812 C 28.84375 32.765625 30.640625 33.746094 30.675781 33.765625 C 30.859375 33.863281 31.082031 33.863281 31.265625 33.765625 C 31.308594 33.738281 34.492188 32.003906 37.871094 28.109375 C 39.5625 26.160156 41.300781 23.671875 42.710938 20.585938 C 44.121094 17.503906 45.203125 13.828125 45.585938 9.511719 C 45.597656 9.363281 45.554688 9.207031 45.464844 9.085938 L 40.078125 1.84375 C 39.957031 1.6875 39.777344 1.59375 39.578125 1.59375 L 39.578125 2.214844 L 39.085938 2.582031 L 44.472656 9.824219 L 44.96875 9.457031 L 44.355469 9.402344 C 43.984375 13.574219 42.941406 17.109375 41.585938 20.074219 C 39.554688 24.519531 36.8125 27.675781 34.585938 29.722656 C 33.472656 30.746094 32.484375 31.488281 31.78125 31.976562 C 31.429688 32.21875 31.148438 32.394531 30.957031 32.511719 C 30.863281 32.570312 30.789062 32.613281 30.742188 32.640625 C 30.71875 32.65625 30.699219 32.664062 30.6875 32.671875 L 30.675781 32.679688 L 30.671875 32.679688 L 30.757812 32.832031 L 30.675781 32.679688 L 30.671875 32.679688 L 30.757812 32.832031 L 30.675781 32.679688 L 30.671875 32.679688 L 30.960938 33.207031 L 30.675781 32.679688 L 30.671875 32.679688 L 30.960938 33.207031 L 30.675781 32.679688 L 30.96875 33.222656 L 31.265625 32.679688 C 31.214844 32.652344 28.144531 30.957031 24.925781 27.210938 C 23.3125 25.339844 21.660156 22.953125 20.320312 20.003906 C 18.980469 17.054688 17.953125 13.539062 17.585938 9.402344 L 16.96875 9.457031 L 17.464844 9.824219 L 22.667969 2.832031 L 39.578125 2.832031 L 39.578125 2.214844 L 39.085938 2.582031 L 39.578125 2.214844"/></g><g clip-path="url(#id2)"><g clip-path="url(#id3)"><g clip-path="url(#id4)"><path fill="#e4652b" fill-opacity="1" fill-rule="nonzero" d="M 40.539062 10.492188 C 40.539062 10.496094 40.691406 10.125 40.570312 9.722656 C 40.449219 9.320312 40.113281 9.082031 40.117188 9.085938 C 40.117188 9.085938 40.03125 9.472656 40.144531 9.847656 C 40.257812 10.222656 40.535156 10.492188 40.539062 10.492188"/></g></g></g><g clip-path="url(#id5)"><g clip-path="url(#id6)"><g clip-path="url(#id7)"><path fill="#e4652b" fill-opacity="1" fill-rule="nonzero" d="M 40.71875 10.351562 C 40.84375 9.996094 41.136719 9.824219 41.140625 9.824219 C 41.140625 9.820312 41.269531 10.277344 41.128906 10.640625 C 40.988281 11 40.660156 11.121094 40.660156 11.121094 C 40.664062 11.117188 40.59375 10.707031 40.71875 10.351562 Z M 40.046875 10.839844 C 40.296875 11.089844 40.636719 11.125 40.636719 11.125 C 40.636719 11.125 40.582031 10.695312 40.316406 10.441406 C 40.050781 10.1875 39.707031 10.210938 39.707031 10.210938 C 39.707031 10.210938 39.800781 10.589844 40.046875 10.839844"/></g></g></g><g clip-path="url(#id8)"><g clip-path="url(#id9)"><g clip-path="url(#id10)"><path fill="#e4652b" fill-opacity="1" fill-rule="nonzero" d="M 40.9375 11.71875 C 41.128906 11.363281 41.476562 11.222656 41.476562 11.222656 C 41.476562 11.222656 41.542969 11.730469 41.332031 12.09375 C 41.121094 12.453125 40.746094 12.523438 40.75 12.527344 C 40.75 12.523438 40.746094 12.074219 40.9375 11.71875 Z M 40.136719 12.128906 C 40.363281 12.433594 40.71875 12.527344 40.722656 12.527344 C 40.722656 12.527344 40.738281 12.0625 40.492188 11.75 C 40.246094 11.441406 39.871094 11.414062 39.871094 11.414062 C 39.875 11.414062 39.910156 11.824219 40.136719 12.128906"/></g></g></g><g clip-path="url(#id11)"><g clip-path="url(#id12)"><g clip-path="url(#id13)"><path fill="#e4652b" fill-opacity="1" fill-rule="nonzero" d="M 40.949219 13.089844 C 41.214844 12.742188 41.605469 12.648438 41.605469 12.648438 C 41.609375 12.644531 41.597656 13.195312 41.3125 13.550781 C 41.027344 13.902344 40.617188 13.914062 40.621094 13.914062 C 40.621094 13.914062 40.691406 13.4375 40.949219 13.089844 Z M 40.027344 13.394531 C 40.222656 13.75 40.589844 13.910156 40.589844 13.910156 C 40.59375 13.914062 40.683594 13.421875 40.46875 13.054688 C 40.257812 12.6875 39.859375 12.601562 39.859375 12.601562 C 39.863281 12.605469 39.835938 13.039062 40.027344 13.394531"/></g></g></g><g clip-path="url(#id14)"><g clip-path="url(#id15)"><g clip-path="url(#id16)"><path fill="#e4652b" fill-opacity="1" fill-rule="nonzero" d="M 40.765625 14.441406 C 41.097656 14.113281 41.527344 14.070312 41.53125 14.074219 C 41.535156 14.070312 41.4375 14.65625 41.074219 14.988281 C 40.71875 15.316406 40.28125 15.261719 40.28125 15.265625 C 40.285156 15.261719 40.433594 14.769531 40.765625 14.441406 Z M 39.738281 14.617188 C 39.886719 15.023438 40.25 15.253906 40.25 15.253906 C 40.253906 15.257812 40.429688 14.75 40.257812 14.328125 C 40.089844 13.90625 39.679688 13.757812 39.679688 13.753906 C 39.683594 13.757812 39.589844 14.210938 39.738281 14.617188"/></g></g></g><g clip-path="url(#id17)"><g clip-path="url(#id18)"><g clip-path="url(#id19)"><path fill="#e4652b" fill-opacity="1" fill-rule="nonzero" d="M 40.382812 15.75 C 40.789062 15.457031 41.25 15.476562 41.25 15.476562 C 41.253906 15.476562 41.0625 16.085938 40.625 16.378906 C 40.195312 16.671875 39.738281 16.546875 39.742188 16.546875 C 39.746094 16.546875 39.984375 16.046875 40.382812 15.75 Z M 39.269531 15.773438 C 39.363281 16.226562 39.707031 16.53125 39.710938 16.53125 C 39.710938 16.535156 39.980469 16.023438 39.867188 15.550781 C 39.753906 15.082031 39.339844 14.859375 39.339844 14.859375 C 39.34375 14.863281 39.179688 15.320312 39.269531 15.773438"/></g></g></g><g clip-path="url(#id20)"><g clip-path="url(#id21)"><g clip-path="url(#id22)"><path fill="#e4652b" fill-opacity="1" fill-rule="nonzero" d="M 39.8125 16.996094 C 40.285156 16.746094 40.769531 16.835938 40.773438 16.835938 C 40.777344 16.835938 40.476562 17.457031 39.96875 17.703125 C 39.460938 17.945312 39.003906 17.738281 39.003906 17.738281 C 39.007812 17.738281 39.34375 17.25 39.8125 16.996094 Z M 38.636719 16.847656 C 38.660156 17.339844 38.972656 17.71875 38.976562 17.71875 C 38.976562 17.722656 39.347656 17.226562 39.300781 16.707031 C 39.253906 16.191406 38.847656 15.898438 38.851562 15.898438 C 38.851562 15.902344 38.613281 16.355469 38.636719 16.847656"/></g></g></g><g clip-path="url(#id23)"><g clip-path="url(#id24)"><g clip-path="url(#id25)"><path fill="#e4652b" fill-opacity="1" fill-rule="nonzero" d="M 39.058594 18.15625 C 39.597656 17.960938 40.09375 18.128906 40.09375 18.128906 C 40.101562 18.128906 39.6875 18.742188 39.105469 18.925781 C 38.527344 19.109375 38.082031 18.8125 38.082031 18.816406 C 38.085938 18.816406 38.527344 18.351562 39.058594 18.15625 Z M 37.84375 17.816406 C 37.789062 18.339844 38.050781 18.789062 38.054688 18.789062 C 38.054688 18.796875 38.53125 18.324219 38.566406 17.769531 C 38.597656 17.21875 38.21875 16.851562 38.222656 16.851562 C 38.222656 16.855469 37.898438 17.296875 37.84375 17.816406"/></g></g></g><g clip-path="url(#id26)"><g clip-path="url(#id27)"><g clip-path="url(#id28)"><path fill="#e4652b" fill-opacity="1" fill-rule="nonzero" d="M 38.128906 19.207031 C 38.730469 19.082031 39.222656 19.328125 39.226562 19.332031 C 39.230469 19.332031 38.691406 19.921875 38.039062 20.027344 C 37.398438 20.132812 36.976562 19.75 36.976562 19.753906 C 36.984375 19.753906 37.53125 19.335938 38.128906 19.207031 Z M 36.902344 18.664062 C 36.757812 19.203125 36.949219 19.71875 36.953125 19.722656 C 36.953125 19.726562 37.546875 19.304688 37.671875 18.726562 C 37.800781 18.148438 37.457031 17.707031 37.460938 17.707031 C 37.457031 17.710938 37.054688 18.125 36.902344 18.664062"/></g></g></g><g clip-path="url(#id29)"><g clip-path="url(#id30)"><g clip-path="url(#id31)"><path fill="#e4652b" fill-opacity="1" fill-rule="nonzero" d="M 20.976562 10.5 C 20.976562 10.5 20.820312 10.128906 20.941406 9.726562 C 21.058594 9.324219 21.390625 9.085938 21.386719 9.085938 C 21.386719 9.089844 21.472656 9.472656 21.363281 9.851562 C 21.253906 10.226562 20.976562 10.496094 20.976562 10.5"/></g></g></g><g clip-path="url(#id32)"><g clip-path="url(#id33)"><g clip-path="url(#id34)"><path fill="#e4652b" fill-opacity="1" fill-rule="nonzero" d="M 20.796875 10.359375 C 20.667969 10.003906 20.371094 9.832031 20.371094 9.832031 C 20.367188 9.832031 20.242188 10.289062 20.386719 10.648438 C 20.53125 11.011719 20.859375 11.125 20.855469 11.125 C 20.855469 11.125 20.921875 10.710938 20.796875 10.359375 Z M 21.46875 10.839844 C 21.222656 11.09375 20.882812 11.128906 20.882812 11.128906 C 20.878906 11.132812 20.933594 10.703125 21.199219 10.445312 C 21.460938 10.1875 21.804688 10.210938 21.804688 10.210938 C 21.804688 10.210938 21.714844 10.589844 21.46875 10.839844"/></g></g></g><g clip-path="url(#id35)"><g clip-path="url(#id36)"><g clip-path="url(#id37)"><path fill="#e4652b" fill-opacity="1" fill-rule="nonzero" d="M 20.585938 11.726562 C 20.390625 11.371094 20.042969 11.234375 20.042969 11.238281 C 20.042969 11.234375 19.980469 11.742188 20.195312 12.105469 C 20.410156 12.464844 20.78125 12.53125 20.78125 12.53125 C 20.777344 12.53125 20.78125 12.082031 20.585938 11.726562 Z M 21.390625 12.128906 C 21.167969 12.4375 20.808594 12.535156 20.808594 12.53125 C 20.804688 12.535156 20.789062 12.070312 21.03125 11.757812 C 21.273438 11.445312 21.648438 11.414062 21.648438 11.414062 C 21.648438 11.414062 21.613281 11.824219 21.390625 12.128906"/></g></g></g><g clip-path="url(#id38)"><g clip-path="url(#id39)"><g clip-path="url(#id40)"><path fill="#e4652b" fill-opacity="1" fill-rule="nonzero" d="M 20.582031 13.097656 C 20.316406 12.753906 19.925781 12.660156 19.925781 12.660156 C 19.921875 12.660156 19.9375 13.210938 20.226562 13.5625 C 20.511719 13.910156 20.921875 13.921875 20.917969 13.921875 C 20.917969 13.917969 20.847656 13.445312 20.582031 13.097656 Z M 21.507812 13.394531 C 21.316406 13.753906 20.949219 13.917969 20.949219 13.917969 C 20.949219 13.917969 20.855469 13.429688 21.066406 13.058594 C 21.273438 12.691406 21.671875 12.601562 21.667969 12.601562 C 21.667969 12.605469 21.695312 13.039062 21.507812 13.394531"/></g></g></g><g clip-path="url(#id41)"><g clip-path="url(#id42)"><g clip-path="url(#id43)"><path fill="#e4652b" fill-opacity="1" fill-rule="nonzero" d="M 20.777344 14.449219 C 20.445312 14.125 20.011719 14.085938 20.011719 14.085938 C 20.007812 14.085938 20.109375 14.667969 20.472656 14.996094 C 20.832031 15.324219 21.269531 15.265625 21.269531 15.269531 C 21.265625 15.265625 21.113281 14.773438 20.777344 14.449219 Z M 21.808594 14.617188 C 21.664062 15.023438 21.300781 15.257812 21.296875 15.257812 C 21.296875 15.261719 21.117188 14.753906 21.285156 14.332031 C 21.449219 13.910156 21.859375 13.753906 21.859375 13.753906 C 21.855469 13.757812 21.953125 14.207031 21.808594 14.617188"/></g></g></g><g clip-path="url(#id44)"><g clip-path="url(#id45)"><g clip-path="url(#id46)"><path fill="#e4652b" fill-opacity="1" fill-rule="nonzero" d="M 21.171875 15.753906 C 20.765625 15.460938 20.300781 15.484375 20.300781 15.488281 C 20.296875 15.484375 20.492188 16.09375 20.933594 16.386719 C 21.367188 16.675781 21.820312 16.542969 21.820312 16.546875 C 21.816406 16.546875 21.574219 16.050781 21.171875 15.753906 Z M 22.285156 15.769531 C 22.195312 16.222656 21.851562 16.53125 21.851562 16.53125 C 21.847656 16.535156 21.574219 16.027344 21.6875 15.550781 C 21.796875 15.082031 22.207031 14.859375 22.207031 14.855469 C 22.203125 14.859375 22.371094 15.316406 22.285156 15.769531"/></g></g></g><g clip-path="url(#id47)"><g clip-path="url(#id48)"><g clip-path="url(#id49)"><path fill="#e4652b" fill-opacity="1" fill-rule="nonzero" d="M 21.75 16.996094 C 21.273438 16.75 20.792969 16.84375 20.789062 16.84375 C 20.785156 16.84375 21.089844 17.460938 21.601562 17.703125 C 22.109375 17.945312 22.566406 17.730469 22.5625 17.734375 C 22.558594 17.730469 22.21875 17.246094 21.75 16.996094 Z M 22.925781 16.839844 C 22.90625 17.332031 22.597656 17.710938 22.59375 17.710938 C 22.59375 17.71875 22.21875 17.222656 22.261719 16.703125 C 22.304688 16.1875 22.707031 15.890625 22.703125 15.890625 C 22.703125 15.894531 22.945312 16.347656 22.925781 16.839844"/></g></g></g><g clip-path="url(#id50)"><g clip-path="url(#id51)"><g clip-path="url(#id52)"><path fill="#e4652b" fill-opacity="1" fill-rule="nonzero" d="M 22.511719 18.152344 C 21.972656 17.960938 21.476562 18.128906 21.476562 18.132812 C 21.46875 18.132812 21.890625 18.742188 22.472656 18.921875 C 23.050781 19.097656 23.496094 18.800781 23.496094 18.804688 C 23.492188 18.804688 23.046875 18.34375 22.511719 18.152344 Z M 23.726562 17.800781 C 23.785156 18.324219 23.527344 18.777344 23.523438 18.777344 C 23.523438 18.78125 23.039062 18.316406 23.003906 17.761719 C 22.964844 17.210938 23.34375 16.839844 23.339844 16.839844 C 23.339844 16.84375 23.664062 17.28125 23.726562 17.800781"/></g></g></g><g clip-path="url(#id53)"><g clip-path="url(#id54)"><g clip-path="url(#id55)"><path fill="#e4652b" fill-opacity="1" fill-rule="nonzero" d="M 23.453125 19.195312 C 22.851562 19.074219 22.359375 19.324219 22.355469 19.328125 C 22.347656 19.324219 22.894531 19.914062 23.546875 20.011719 C 24.191406 20.113281 24.609375 19.730469 24.605469 19.734375 C 24.601562 19.730469 24.050781 19.316406 23.453125 19.195312 Z M 24.671875 18.640625 C 24.824219 19.179688 24.636719 19.699219 24.632812 19.699219 C 24.632812 19.707031 24.035156 19.289062 23.90625 18.707031 C 23.773438 18.132812 24.113281 17.6875 24.109375 17.6875 C 24.109375 17.691406 24.519531 18.101562 24.671875 18.640625"/></g></g></g><g clip-path="url(#id56)"><path fill="#e4652b" fill-opacity="1" fill-rule="nonzero" d="M 24.992188 21.402344 L 25.292969 22.007812 L 25.964844 22.105469 L 25.476562 22.578125 L 25.59375 23.246094 L 24.992188 22.933594 L 24.394531 23.246094 L 24.507812 22.578125 L 24.023438 22.105469 L 24.691406 22.007812 L 24.992188 21.402344"/></g><g clip-path="url(#id57)"><path fill="#e4652b" fill-opacity="1" fill-rule="nonzero" d="M 36.582031 21.402344 L 36.878906 22.007812 L 37.550781 22.105469 L 37.066406 22.578125 L 37.179688 23.246094 L 36.582031 22.933594 L 35.980469 23.246094 L 36.09375 22.578125 L 35.609375 22.105469 L 36.28125 22.007812 L 36.582031 21.402344"/></g><path fill="#e4652b" fill-opacity="1" fill-rule="nonzero" d="M 25.847656 8.761719 C 25.664062 8.84375 25.824219 9.105469 26.003906 9.023438 C 27.152344 8.515625 28.671875 8.261719 29.878906 8.75 C 30.0625 8.824219 30.144531 8.53125 29.960938 8.457031 C 28.675781 7.941406 27.082031 8.214844 25.847656 8.761719"/><path fill="#e4652b" fill-opacity="1" fill-rule="nonzero" d="M 29.960938 9.316406 C 28.675781 8.800781 27.082031 9.074219 25.847656 9.621094 C 25.664062 9.703125 25.824219 9.964844 26.003906 9.882812 C 27.152344 9.375 28.671875 9.121094 29.878906 9.609375 C 30.0625 9.683594 30.144531 9.390625 29.960938 9.316406"/><path fill="#e4652b" fill-opacity="1" fill-rule="nonzero" d="M 29.960938 10.175781 C 28.675781 9.660156 27.082031 9.9375 25.847656 10.480469 C 25.664062 10.5625 25.824219 10.824219 26.003906 10.742188 C 27.152344 10.234375 28.671875 9.984375 29.878906 10.46875 C 30.0625 10.542969 30.144531 10.25 29.960938 10.175781"/><path fill="#e4652b" fill-opacity="1" fill-rule="nonzero" d="M 29.960938 11.035156 C 28.675781 10.519531 27.082031 10.796875 25.847656 11.339844 C 25.664062 11.421875 25.824219 11.683594 26.003906 11.601562 C 27.152344 11.09375 28.671875 10.84375 29.878906 11.328125 C 30.0625 11.402344 30.144531 11.109375 29.960938 11.035156"/><path fill="#e4652b" fill-opacity="1" fill-rule="nonzero" d="M 29.960938 11.894531 C 28.675781 11.378906 27.082031 11.65625 25.847656 12.199219 C 25.664062 12.28125 25.824219 12.542969 26.003906 12.460938 C 27.152344 11.953125 28.671875 11.703125 29.878906 12.1875 C 30.0625 12.261719 30.144531 11.96875 29.960938 11.894531"/><path fill="#e4652b" fill-opacity="1" fill-rule="nonzero" d="M 29.960938 12.753906 C 28.675781 12.238281 27.082031 12.515625 25.847656 13.0625 C 25.664062 13.140625 25.824219 13.402344 26.003906 13.324219 C 27.152344 12.8125 28.671875 12.5625 29.878906 13.046875 C 30.0625 13.121094 30.144531 12.828125 29.960938 12.753906"/><path fill="#e4652b" fill-opacity="1" fill-rule="nonzero" d="M 29.960938 13.613281 C 28.675781 13.097656 27.082031 13.375 25.847656 13.921875 C 25.664062 14 25.824219 14.261719 26.003906 14.183594 C 27.152344 13.671875 28.671875 13.421875 29.878906 13.90625 C 30.0625 13.984375 30.144531 13.6875 29.960938 13.613281"/><path fill="#e4652b" fill-opacity="1" fill-rule="nonzero" d="M 29.960938 14.472656 C 28.675781 13.957031 27.082031 14.234375 25.847656 14.78125 C 25.664062 14.859375 25.824219 15.121094 26.003906 15.042969 C 27.152344 14.535156 28.671875 14.28125 29.878906 14.765625 C 30.0625 14.84375 30.144531 14.546875 29.960938 14.472656"/><path fill="#e4652b" fill-opacity="1" fill-rule="nonzero" d="M 31.746094 8.457031 C 31.5625 8.53125 31.640625 8.824219 31.828125 8.75 C 33.03125 8.261719 34.550781 8.515625 35.703125 9.023438 C 35.882812 9.105469 36.039062 8.84375 35.859375 8.761719 C 34.625 8.214844 33.027344 7.941406 31.746094 8.457031"/><path fill="#e4652b" fill-opacity="1" fill-rule="nonzero" d="M 35.859375 9.621094 C 34.625 9.074219 33.027344 8.800781 31.746094 9.316406 C 31.5625 9.390625 31.640625 9.683594 31.828125 9.609375 C 33.03125 9.121094 34.550781 9.375 35.703125 9.882812 C 35.882812 9.964844 36.039062 9.703125 35.859375 9.621094"/><path fill="#e4652b" fill-opacity="1" fill-rule="nonzero" d="M 35.859375 10.480469 C 34.625 9.9375 33.027344 9.660156 31.746094 10.175781 C 31.5625 10.25 31.640625 10.542969 31.828125 10.46875 C 33.03125 9.984375 34.550781 10.234375 35.703125 10.742188 C 35.882812 10.824219 36.039062 10.5625 35.859375 10.480469"/><path fill="#e4652b" fill-opacity="1" fill-rule="nonzero" d="M 35.859375 11.339844 C 34.625 10.796875 33.027344 10.519531 31.746094 11.035156 C 31.5625 11.109375 31.640625 11.402344 31.828125 11.328125 C 33.03125 10.84375 34.550781 11.09375 35.703125 11.601562 C 35.882812 11.683594 36.039062 11.421875 35.859375 11.339844"/><path fill="#e4652b" fill-opacity="1" fill-rule="nonzero" d="M 35.859375 12.199219 C 34.625 11.65625 33.027344 11.378906 31.746094 11.894531 C 31.5625 11.96875 31.640625 12.261719 31.828125 12.1875 C 33.03125 11.703125 34.550781 11.953125 35.703125 12.460938 C 35.882812 12.542969 36.039062 12.28125 35.859375 12.199219"/><path fill="#e4652b" fill-opacity="1" fill-rule="nonzero" d="M 35.859375 13.0625 C 34.625 12.515625 33.027344 12.238281 31.746094 12.753906 C 31.5625 12.828125 31.640625 13.121094 31.828125 13.046875 C 33.03125 12.5625 34.550781 12.8125 35.703125 13.324219 C 35.882812 13.402344 36.039062 13.140625 35.859375 13.0625"/><path fill="#e4652b" fill-opacity="1" fill-rule="nonzero" d="M 35.859375 13.921875 C 34.625 13.375 33.027344 13.097656 31.746094 13.613281 C 31.5625 13.6875 31.640625 13.980469 31.828125 13.90625 C 33.03125 13.421875 34.550781 13.671875 35.703125 14.183594 C 35.882812 14.261719 36.039062 14 35.859375 13.921875"/><path fill="#e4652b" fill-opacity="1" fill-rule="nonzero" d="M 35.859375 14.78125 C 34.625 14.234375 33.027344 13.957031 31.746094 14.472656 C 31.5625 14.546875 31.640625 14.84375 31.828125 14.765625 C 33.03125 14.28125 34.550781 14.535156 35.703125 15.042969 C 35.882812 15.121094 36.039062 14.859375 35.859375 14.78125"/><path fill="#e4652b" fill-opacity="1" fill-rule="nonzero" d="M 37.410156 9.96875 C 37.410156 10.058594 37.410156 10.148438 37.410156 10.234375 C 37.410156 11 37.414062 11.761719 37.414062 12.527344 C 37.414062 13.351562 37.414062 14.175781 37.414062 14.996094 C 37.414062 15.394531 37.449219 16.085938 36.9375 16.09375 C 36.945312 16.078125 36.945312 16.0625 36.945312 16.050781 C 36.949219 13.773438 36.949219 11.5 36.953125 9.222656 C 36.964844 9.226562 36.980469 9.230469 36.996094 9.230469 C 37.375 9.242188 37.445312 9.585938 37.414062 9.894531 C 37.417969 9.835938 37.410156 9.925781 37.410156 9.96875 Z M 36.636719 15.398438 L 36.636719 15.855469 C 35.257812 15.519531 33.867188 15.375 32.453125 15.539062 C 31.980469 15.59375 31.554688 15.675781 31.070312 15.832031 L 31.070312 7.886719 C 31.433594 7.523438 31.96875 7.414062 32.480469 7.375 C 33.125 7.324219 33.757812 7.390625 34.390625 7.492188 C 35.15625 7.609375 35.910156 7.785156 36.648438 8.015625 C 36.648438 10.476562 36.636719 12.9375 36.636719 15.398438 Z M 31.191406 16.09375 C 31.230469 16.082031 31.269531 16.070312 31.308594 16.058594 C 31.6875 15.953125 32.078125 15.882812 32.46875 15.839844 C 33.753906 15.6875 35.0625 15.808594 36.324219 16.09375 C 34.613281 16.09375 32.902344 16.09375 31.191406 16.09375 Z M 30.585938 15.316406 L 30.585938 15.824219 C 30.222656 15.671875 29.726562 15.597656 29.269531 15.539062 C 27.871094 15.367188 26.46875 15.523438 25.105469 15.855469 C 25.09375 13.421875 25.097656 10.988281 25.085938 8.558594 C 25.085938 8.378906 25.089844 8.195312 25.089844 8.015625 C 25.8125 7.785156 26.566406 7.617188 27.316406 7.496094 C 27.953125 7.390625 28.558594 7.332031 29.203125 7.375 C 29.703125 7.40625 30.222656 7.519531 30.585938 7.855469 Z M 28.855469 16.09375 L 25.449219 16.09375 C 26.699219 15.808594 27.988281 15.691406 29.269531 15.839844 C 29.652344 15.878906 30.03125 15.953125 30.402344 16.058594 C 30.441406 16.070312 30.480469 16.082031 30.515625 16.09375 C 29.960938 16.09375 29.40625 16.09375 28.855469 16.09375 Z M 24.527344 15.984375 C 24.378906 15.867188 24.316406 15.648438 24.316406 15.46875 C 24.3125 14.890625 24.3125 14.316406 24.3125 13.738281 C 24.3125 12.753906 24.3125 11.765625 24.3125 10.777344 C 24.3125 10.433594 24.296875 10.082031 24.316406 9.738281 C 24.328125 9.546875 24.386719 9.277344 24.59375 9.195312 C 24.640625 9.179688 24.6875 9.171875 24.738281 9.171875 C 24.796875 9.171875 24.761719 9.171875 24.773438 9.171875 C 24.777344 9.175781 24.785156 9.175781 24.789062 9.175781 C 24.796875 11.25 24.808594 13.324219 24.816406 15.398438 C 24.816406 15.613281 24.820312 15.832031 24.820312 16.050781 C 24.820312 16.0625 24.820312 16.078125 24.824219 16.089844 C 24.71875 16.082031 24.613281 16.054688 24.527344 15.984375 Z M 37.773438 10.886719 L 37.773438 9.984375 C 37.773438 9.957031 37.78125 9.859375 37.769531 9.957031 C 37.84375 9.425781 37.640625 8.898438 37.03125 8.875 C 37.015625 8.875 37.019531 8.878906 37.019531 8.878906 L 37.019531 8.558594 C 37.019531 8.339844 36.988281 8.125 36.988281 7.90625 C 36.988281 7.835938 36.921875 7.78125 36.855469 7.761719 C 36.027344 7.492188 35.15625 7.300781 34.296875 7.171875 C 33.242188 7.015625 31.738281 6.851562 30.855469 7.597656 C 29.984375 6.855469 28.511719 7.019531 27.464844 7.167969 C 26.597656 7.289062 25.730469 7.488281 24.898438 7.761719 C 24.835938 7.78125 24.785156 7.835938 24.785156 7.90625 C 24.785156 8.210938 24.785156 8.515625 24.789062 8.820312 C 24.605469 8.804688 24.417969 8.859375 24.277344 8.976562 C 23.957031 9.242188 23.945312 9.679688 23.945312 10.054688 C 23.945312 10.839844 23.949219 11.625 23.949219 12.40625 C 23.949219 13.246094 23.949219 14.078125 23.953125 14.914062 C 23.953125 15.308594 23.90625 15.707031 24.121094 16.0625 C 24.394531 16.511719 24.941406 16.445312 25.398438 16.445312 L 27.140625 16.445312 C 28.84375 16.445312 30.542969 16.445312 32.246094 16.445312 L 36.390625 16.445312 C 36.59375 16.445312 36.804688 16.464844 37.007812 16.445312 C 37.792969 16.355469 37.777344 15.519531 37.777344 14.925781 C 37.777344 13.578125 37.777344 12.234375 37.773438 10.886719"/><path fill="#e4652b" fill-opacity="1" fill-rule="nonzero" d="M 34.003906 22.46875 C 32.417969 21.960938 31.394531 22.71875 30.960938 23.160156 C 32.75 20.9375 30.722656 19.296875 30.722656 19.296875 C 29.144531 20.960938 30.144531 22.667969 30.5625 23.234375 C 30.183594 22.816406 29.132812 21.929688 27.449219 22.46875 C 27.449219 22.46875 28 24.082031 29.75 23.769531 C 27.820312 24.695312 28.664062 25.855469 28.664062 25.855469 C 30.226562 25.660156 30.648438 24.160156 30.75 23.597656 C 30.835938 24.113281 31.230469 25.703125 32.84375 25.90625 C 32.84375 25.90625 33.730469 24.6875 31.605469 23.75 C 33.433594 24.140625 34.003906 22.46875 34.003906 22.46875"/><path fill="#e4652b" fill-opacity="1" fill-rule="nonzero" d="M 34.003906 22.46875 L 34.019531 22.421875 C 33.640625 22.300781 33.292969 22.25 32.976562 22.25 C 32.464844 22.25 32.035156 22.382812 31.691406 22.558594 C 31.351562 22.734375 31.09375 22.953125 30.925781 23.125 L 30.960938 23.160156 L 31 23.191406 C 31.277344 22.847656 31.464844 22.515625 31.582031 22.199219 C 31.699219 21.886719 31.75 21.585938 31.75 21.3125 C 31.75 21 31.6875 20.714844 31.59375 20.460938 C 31.453125 20.085938 31.246094 19.785156 31.070312 19.578125 C 30.894531 19.371094 30.757812 19.257812 30.753906 19.257812 C 30.734375 19.238281 30.707031 19.242188 30.6875 19.261719 C 30.359375 19.605469 30.140625 19.953125 30.003906 20.292969 C 29.867188 20.632812 29.8125 20.960938 29.8125 21.273438 C 29.8125 21.726562 29.929688 22.140625 30.074219 22.484375 C 30.222656 22.824219 30.398438 23.09375 30.523438 23.265625 L 30.601562 23.203125 C 30.449219 23.035156 30.195312 22.796875 29.839844 22.601562 C 29.484375 22.40625 29.027344 22.25 28.472656 22.25 C 28.160156 22.25 27.8125 22.300781 27.433594 22.421875 C 27.421875 22.425781 27.410156 22.433594 27.40625 22.445312 C 27.398438 22.460938 27.398438 22.472656 27.402344 22.484375 C 27.402344 22.488281 27.519531 22.828125 27.816406 23.171875 C 27.964844 23.34375 28.160156 23.515625 28.40625 23.644531 C 28.652344 23.773438 28.953125 23.859375 29.3125 23.859375 C 29.453125 23.859375 29.601562 23.847656 29.761719 23.820312 L 29.75 23.769531 L 29.730469 23.722656 C 29.210938 23.972656 28.882812 24.242188 28.691406 24.503906 C 28.496094 24.765625 28.429688 25.023438 28.429688 25.238281 C 28.429688 25.429688 28.480469 25.589844 28.527344 25.703125 C 28.574219 25.816406 28.621094 25.882812 28.625 25.886719 C 28.636719 25.898438 28.652344 25.90625 28.671875 25.90625 C 29.070312 25.855469 29.398438 25.722656 29.664062 25.539062 C 30.066406 25.269531 30.328125 24.890625 30.503906 24.527344 C 30.675781 24.167969 30.761719 23.820312 30.800781 23.605469 L 30.75 23.597656 L 30.699219 23.605469 C 30.746094 23.867188 30.867188 24.398438 31.183594 24.894531 C 31.339844 25.144531 31.546875 25.382812 31.820312 25.574219 C 32.089844 25.765625 32.425781 25.90625 32.839844 25.957031 C 32.855469 25.960938 32.875 25.953125 32.886719 25.9375 C 32.886719 25.933594 32.933594 25.867188 32.984375 25.753906 C 33.03125 25.640625 33.078125 25.480469 33.078125 25.292969 C 33.078125 25.0625 33.007812 24.792969 32.789062 24.519531 C 32.574219 24.242188 32.210938 23.960938 31.625 23.703125 L 31.605469 23.75 L 31.59375 23.800781 C 31.789062 23.839844 31.96875 23.859375 32.136719 23.859375 C 32.496094 23.859375 32.796875 23.773438 33.046875 23.644531 C 33.417969 23.449219 33.667969 23.160156 33.824219 22.921875 C 33.984375 22.679688 34.050781 22.488281 34.050781 22.484375 C 34.054688 22.472656 34.054688 22.460938 34.046875 22.445312 C 34.042969 22.433594 34.03125 22.425781 34.019531 22.421875 L 34.003906 22.46875 L 33.957031 22.453125 C 33.953125 22.460938 33.835938 22.789062 33.554688 23.113281 C 33.410156 23.277344 33.226562 23.4375 32.992188 23.558594 C 32.761719 23.679688 32.480469 23.757812 32.136719 23.757812 C 31.976562 23.757812 31.804688 23.742188 31.617188 23.703125 C 31.589844 23.695312 31.566406 23.710938 31.558594 23.734375 C 31.550781 23.757812 31.5625 23.785156 31.585938 23.796875 C 32.160156 24.050781 32.507812 24.320312 32.710938 24.582031 C 32.914062 24.839844 32.976562 25.085938 32.976562 25.292969 C 32.976562 25.464844 32.933594 25.613281 32.890625 25.714844 C 32.867188 25.769531 32.847656 25.808594 32.828125 25.835938 C 32.820312 25.851562 32.816406 25.859375 32.808594 25.867188 C 32.808594 25.871094 32.804688 25.875 32.804688 25.875 L 32.804688 25.878906 L 32.808594 25.882812 L 32.804688 25.878906 L 32.808594 25.882812 L 32.804688 25.878906 L 32.84375 25.90625 L 32.851562 25.855469 C 32.453125 25.808594 32.136719 25.671875 31.878906 25.492188 C 31.488281 25.21875 31.234375 24.839844 31.070312 24.480469 C 30.90625 24.121094 30.832031 23.78125 30.800781 23.589844 C 30.796875 23.5625 30.773438 23.546875 30.75 23.546875 C 30.726562 23.546875 30.707031 23.5625 30.699219 23.585938 C 30.648438 23.867188 30.519531 24.375 30.214844 24.835938 C 30.058594 25.066406 29.863281 25.285156 29.609375 25.457031 C 29.351562 25.628906 29.042969 25.757812 28.660156 25.804688 L 28.664062 25.855469 L 28.707031 25.824219 L 28.699219 25.832031 L 28.707031 25.824219 L 28.699219 25.832031 L 28.707031 25.824219 C 28.703125 25.824219 28.660156 25.761719 28.617188 25.660156 C 28.574219 25.554688 28.53125 25.410156 28.53125 25.238281 C 28.53125 25.042969 28.589844 24.808594 28.769531 24.5625 C 28.953125 24.320312 29.261719 24.058594 29.773438 23.816406 C 29.796875 23.804688 29.808594 23.777344 29.800781 23.753906 C 29.792969 23.730469 29.765625 23.714844 29.742188 23.71875 C 29.589844 23.746094 29.449219 23.757812 29.3125 23.757812 C 28.96875 23.757812 28.6875 23.675781 28.453125 23.554688 C 28.101562 23.371094 27.863281 23.097656 27.710938 22.867188 C 27.636719 22.75 27.582031 22.648438 27.546875 22.570312 C 27.53125 22.535156 27.515625 22.503906 27.507812 22.484375 C 27.503906 22.472656 27.5 22.464844 27.5 22.460938 C 27.5 22.457031 27.5 22.457031 27.496094 22.453125 L 27.449219 22.46875 L 27.464844 22.519531 C 27.832031 22.398438 28.167969 22.351562 28.472656 22.351562 C 29.011719 22.351562 29.449219 22.5 29.792969 22.691406 C 30.136719 22.878906 30.382812 23.109375 30.527344 23.269531 C 30.546875 23.289062 30.574219 23.292969 30.597656 23.273438 C 30.617188 23.257812 30.621094 23.226562 30.605469 23.207031 C 30.484375 23.039062 30.308594 22.773438 30.167969 22.441406 C 30.023438 22.109375 29.914062 21.710938 29.914062 21.273438 C 29.914062 20.972656 29.96875 20.65625 30.097656 20.328125 C 30.230469 20.003906 30.441406 19.667969 30.761719 19.332031 L 30.722656 19.296875 L 30.691406 19.335938 C 30.703125 19.34375 30.945312 19.542969 31.179688 19.890625 C 31.296875 20.0625 31.414062 20.269531 31.503906 20.507812 C 31.589844 20.746094 31.648438 21.015625 31.648438 21.3125 C 31.648438 21.574219 31.601562 21.863281 31.488281 22.164062 C 31.375 22.46875 31.191406 22.789062 30.921875 23.128906 C 30.90625 23.148438 30.90625 23.179688 30.925781 23.195312 C 30.949219 23.214844 30.976562 23.214844 30.996094 23.195312 C 31.160156 23.027344 31.40625 22.816406 31.738281 22.648438 C 32.070312 22.480469 32.480469 22.351562 32.976562 22.351562 C 33.28125 22.351562 33.617188 22.398438 33.988281 22.519531 L 34.003906 22.46875 L 33.957031 22.453125 L 34.003906 22.46875"/></svg>